<svg width="64" height="64" fill="none" xmlns="http://www.w3.org/2000/svg" viewBox="0 0 64 64">
  <style>
    .moma {
      fill: #000000;
    }
    .moma__background {
      fill: #ffffff;
    }
    .moma--1x {
      display: none;
    }
    @media (-webkit-device-pixel-ratio: 1) {
      .moma--2x {
        display: none;
      }
      .moma--1x {
        display: initial;
      }
    }
  </style>
  <rect class="moma__background" width="64" height="64" rx="8"/>
  <path class="moma moma--2x" d="M15.722 26H20v12h-3v-8.925L15.007 38h-2.559L10.5 29.048V38H8V26h4.082l1.812 7.59L15.722 26Zm36.067 0h-3.72l-3.861 12h2.813l.687-2h4.12l.667 2h2.957l-3.663-12Zm-3.336 7.5 1.4-4.601L51.17 33.5h-2.718Zm-22.952-3.912c-2.21 0-4.29 1.473-4.29 4.195v.18c0 2.754 2.08 4.212 4.29 4.212 2.225 0 4.308-1.458 4.308-4.212v-.177c-.002-2.726-2.083-4.198-4.308-4.198Zm1.446 4.483c0 1.521-.603 2.146-1.446 2.146-.826 0-1.43-.625-1.43-2.146v-.395c0-1.554.604-2.146 1.43-2.146.843 0 1.446.593 1.446 2.146v.395ZM43 26h-4.278l-1.828 7.59L35.082 26H31v12h2.5v-8.952L35.448 38h2.559L40 29.075V38h3V26Z"/>
  <path class="moma moma--1x" d="M17.316 30.501 15.072 40h-2.614l-2.213-9.53V40H8V28h4.314l1.618 7.695L15.582 28H20v12h-2.684v-9.499Zm3.896 5.227v-.192c0-2.87 2.213-4.44 4.553-4.44 2.374 0 4.57 1.572 4.57 4.44v.192c0 2.933-2.196 4.474-4.57 4.474-2.34-.002-4.553-1.54-4.553-4.474Zm4.553-2.582c-.866 0-1.538.64-1.538 2.278v.432c0 1.603.672 2.277 1.538 2.277.898 0 1.572-.674 1.572-2.277v-.432c0-1.637-.674-2.278-1.572-2.278ZM49.364 28h3.816l3.703 12h-2.998l-.674-2.188h-4.2L48.305 40H45.42l3.944-12Zm3.158 7.536-1.363-4.922-1.411 4.922h2.774ZM39.072 40l2.244-9.499V40H44V28h-4.417l-1.651 7.695L36.314 28H32v12h2.245v-9.53L36.458 40h2.614Z"/>
</svg>
